<svg id="logo-lci" xmlns="http://www.w3.org/2000/svg" width="249.687" height="70" viewBox="0 0 249.687 70">
  <path id="Path_5233" data-name="Path 5233" d="M354.433,110.293l5.89-13.469,5.231,13.469Zm-8.32,8.362h8.732c.411,0,.535-.371-.082-.453-2.471-.329-2.966-1.854-2.142-3.748l1.277-2.883h12.15l1.112,2.883c.741,1.936.288,3.172-2.513,3.748-.412.082-.412.453,0,.453h12.109c.371,0,.371-.371,0-.453a6.492,6.492,0,0,1-4.736-3.872l-7.743-19.811a5.541,5.541,0,0,1-.288-4.078c.206-.453.123-.618-.33-.618h-7.331c-.453,0-.536.124-.536.247,0,.082.04.164.412.33,1.318.576,2.306,1.936,3.3,4.324l-8.69,19.565a6.539,6.539,0,0,1-4.7,3.913c-.371.082-.371.453,0,.453M313.785,90.276a9.8,9.8,0,0,1,3.873,3.171v20.635a3.848,3.848,0,0,1-3.3,4.119c-.371.082-.371.453,0,.453h8.278c.371,0,.371-.371,0-.453a3.848,3.848,0,0,1-3.294-4.119V95.754l16.434,22.571a.861.861,0,0,0,.659.329h6.3c.247,0,.247-.371,0-.453a7.645,7.645,0,0,1-3.171-2.43V94.394a3.848,3.848,0,0,1,3.294-4.118c.371-.083.371-.454,0-.454h-8.278c-.371,0-.371.371,0,.454a3.848,3.848,0,0,1,3.294,4.118v19.112L320.953,90.152a.862.862,0,0,0-.659-.33h-6.508c-.205,0-.205.371,0,.454M238.2,94.394v19.688a3.848,3.848,0,0,1-3.3,4.119c-.371.082-.371.453,0,.453H255.5c.247,0,.371-.082.494-.453l1.565-5.231c.165-.494,0-.618-.165-.618s-.329.164-.453.411c-1.565,3.13-3.378,4.119-8.114,4.283l-6.054.206V94.394a3.847,3.847,0,0,1,3.294-4.118c.371-.083.371-.453,0-.453H234.905c-.371,0-.371.371,0,.453a3.848,3.848,0,0,1,3.3,4.118m-78.552,0v19.688a3.848,3.848,0,0,1-3.3,4.119c-.371.082-.371.453,0,.453h11.162c.371,0,.371-.371,0-.453a3.848,3.848,0,0,1-3.3-4.119V94.394a3.848,3.848,0,0,1,3.3-4.118c.371-.083.371-.453,0-.453H156.354c-.371,0-.371.371,0,.453a3.848,3.848,0,0,1,3.3,4.118m2.6-16.454.906-6.261c.082-.536-.412-.618-.618-.041-1.276,3.583-3.706,4.983-6.59,5.107l-5.643.206V54.133a3.848,3.848,0,0,1,3.3-4.119c.371-.083.371-.453,0-.453H142.433c-.371,0-.371.371,0,.453a3.848,3.848,0,0,1,3.3,4.119V73.821a3.848,3.848,0,0,1-3.3,4.119c-.371.083-.371.453,0,.453h19.4c.247,0,.371-.124.412-.453m24.014-7.908H175.138l5.891-13.469Zm11.2,7.908a6.492,6.492,0,0,1-4.737-3.872l-7.743-19.811a5.541,5.541,0,0,1-.289-4.078c.206-.453.124-.618-.329-.618h-7.332c-.453,0-.535.124-.535.247,0,.083.041.165.412.33,1.318.576,2.306,1.936,3.3,4.325l-8.692,19.564a6.535,6.535,0,0,1-4.7,3.913c-.371.083-.371.453,0,.453h8.732c.412,0,.535-.371-.083-.453-2.471-.329-2.966-1.854-2.142-3.748l1.277-2.883h12.15l1.113,2.883c.741,1.936.288,3.171-2.513,3.748-.411.083-.411.453,0,.453h12.11c.37,0,.37-.371,0-.453m.905,17.732-.371-5.4c-.041-.371-.165-.453-.412-.453H174.973a.389.389,0,0,0-.413.411l-.371,5.438c-.041.411.041.659.247.659.164,0,.247-.165.37-.453,1.278-3.048,3.666-4.655,8.4-4.655h.783v22.86a3.848,3.848,0,0,1-3.3,4.119c-.371.082-.371.454,0,.454H191.86c.371,0,.371-.372,0-.454a3.848,3.848,0,0,1-3.3-4.119V91.223h.783c4.736,0,7.125,1.607,8.4,4.655.124.288.206.453.371.453.206,0,.288-.248.247-.659m15.107,1.153,5.23,13.469h-11.12Zm3.336-7h-7.332c-.453,0-.536.124-.536.247,0,.082.041.164.413.33,1.318.576,2.306,1.936,3.3,4.324l-8.692,19.565a6.535,6.535,0,0,1-4.7,3.913c-.371.082-.371.453,0,.453H208c.412,0,.535-.371-.083-.453-2.471-.329-2.966-1.854-2.142-3.748l1.277-2.883H219.2l1.113,2.883c.741,1.936.288,3.172-2.513,3.748-.411.082-.411.453,0,.453h12.11c.37,0,.37-.371,0-.453a6.492,6.492,0,0,1-4.737-3.872l-7.743-19.811a5.541,5.541,0,0,1-.289-4.078c.206-.453.124-.618-.329-.618m21.925-17.361a.421.421,0,0,0-.083-.618l-2.8-2.471c-.165-.165-.331-.124-.413.082-1.729,4.86-4.983,7.908-8.772,7.908-6.55,0-11.079-6.961-11.079-14.5,0-6.179,3.006-12.027,8.855-12.027,3.006,0,6.1,1.73,8.773,5.52a.374.374,0,0,0,.576.081l3.418-2.553a.377.377,0,0,0,.083-.578,13.467,13.467,0,0,0-10.42-4.654c-7.95,0-16.351,6.055-16.351,15.94,0,9.144,6.961,14.416,14.581,14.416a18.038,18.038,0,0,0,13.633-6.549m34.764-22.9H264.85c-.371,0-.371.371,0,.453a3.848,3.848,0,0,1,3.3,4.119V66.86c0,6.92-3.624,10.421-8.814,10.421-4.366,0-8.567-2.8-8.567-8.773V54.133a3.848,3.848,0,0,1,3.3-4.119c.37-.083.37-.453,0-.453H242.9c-.37,0-.37.371,0,.453a3.848,3.848,0,0,1,3.3,4.119V68.1c0,7.043,4.49,10.915,12.685,10.915,6.673,0,11.327-4.078,11.327-12.439V54.133a3.848,3.848,0,0,1,3.3-4.119c.371-.083.371-.453,0-.453m-3.129,64.521V94.394a3.848,3.848,0,0,1,3.294-4.118c.371-.083.371-.453,0-.453H262.5c-.371,0-.371.371,0,.453a3.848,3.848,0,0,1,3.294,4.118v19.688A3.848,3.848,0,0,1,262.5,118.2c-.371.082-.371.453,0,.453h11.161c.371,0,.371-.371,0-.453a3.848,3.848,0,0,1-3.294-4.119m35.155-41.62a.42.42,0,0,0-.082-.618l-2.8-2.471c-.165-.165-.329-.124-.412.082-1.729,4.86-4.983,7.908-8.773,7.908-6.549,0-11.08-6.961-11.08-14.5,0-6.179,3.007-12.027,8.855-12.027,3.007,0,6.1,1.73,8.773,5.52a.374.374,0,0,0,.577.081L304,53.886a.377.377,0,0,0,.083-.578,13.469,13.469,0,0,0-10.42-4.654c-7.95,0-16.352,6.055-16.352,15.94,0,9.144,6.961,14.416,14.581,14.416a18.038,18.038,0,0,0,13.633-6.549m-6.816,37.831H287.588l5.89-13.469Zm11.2,7.908a6.5,6.5,0,0,1-4.736-3.872l-7.743-19.811a5.543,5.543,0,0,1-.288-4.078c.206-.453.123-.618-.33-.618h-7.331c-.453,0-.535.124-.535.247,0,.082.04.164.411.33,1.318.576,2.307,1.936,3.3,4.324l-8.691,19.565a6.538,6.538,0,0,1-4.7,3.913c-.371.082-.371.453,0,.453H288c.412,0,.536-.371-.082-.453-2.471-.329-2.966-1.854-2.142-3.748l1.278-2.883H299.2l1.113,2.883c.741,1.936.288,3.172-2.513,3.748-.412.082-.412.453,0,.453h12.109c.371,0,.371-.371,0-.453m8.3-44.38V54.133a3.849,3.849,0,0,1,3.3-4.119c.371-.083.371-.453,0-.453H310.346c-.371,0-.371.371,0,.453a3.849,3.849,0,0,1,3.3,4.119V73.821a3.848,3.848,0,0,1-3.3,4.119c-.371.083-.371.453,0,.453h11.162c.371,0,.371-.371,0-.453a3.848,3.848,0,0,1-3.3-4.119m39.458-24.26h-8.278c-.371,0-.371.371,0,.454a3.848,3.848,0,0,1,3.294,4.119V73.245L335.76,49.891a.862.862,0,0,0-.659-.33h-6.508c-.2,0-.2.371,0,.454a9.8,9.8,0,0,1,3.873,3.171V73.821a3.848,3.848,0,0,1-3.3,4.119c-.371.083-.371.453,0,.453h8.278c.37,0,.37-.371,0-.453a3.848,3.848,0,0,1-3.295-4.119V55.493l16.434,22.571a.861.861,0,0,0,.659.329h6.3c.247,0,.247-.371,0-.453a7.639,7.639,0,0,1-3.171-2.43V54.133a3.848,3.848,0,0,1,3.294-4.119c.371-.083.371-.454,0-.454m22.69,20.471H369.24l5.89-13.469Zm11.2,7.908a6.492,6.492,0,0,1-4.736-3.872l-7.743-19.811a5.541,5.541,0,0,1-.288-4.078c.206-.453.123-.618-.33-.618h-7.331c-.453,0-.536.124-.536.247,0,.083.041.165.412.33,1.319.576,2.306,1.936,3.3,4.325l-8.69,19.564a6.539,6.539,0,0,1-4.7,3.913c-.371.083-.371.453,0,.453h8.732c.411,0,.535-.371-.082-.453-2.471-.329-2.966-1.854-2.142-3.748l1.277-2.883h12.15l1.112,2.883c.741,1.936.288,3.171-2.513,3.748-.412.083-.412.453,0,.453h12.109c.371,0,.371-.371,0-.453" transform="translate(-142.155 -48.655)"/>
</svg>
